<?xml version="1.0" encoding="UTF-8" standalone="no"?>
<svg
   xmlns:dc="http://purl.org/dc/elements/1.1/"
   xmlns:cc="http://creativecommons.org/ns#"
   xmlns:rdf="http://www.w3.org/1999/02/22-rdf-syntax-ns#"
   xmlns:svg="http://www.w3.org/2000/svg"
   xmlns="http://www.w3.org/2000/svg"
   xmlns:sodipodi="http://sodipodi.sourceforge.net/DTD/sodipodi-0.dtd"
   xmlns:inkscape="http://www.inkscape.org/namespaces/inkscape"
   width="210mm"
   height="297mm"
   viewBox="0 0 210 297"
   version="1.1"
   id="svg1002"
   sodipodi:docname="actions-geo.svg"
   inkscape:version="1.0.1 (3bc2e813f5, 2020-09-07)">
  <defs
     id="defs996" />
  <sodipodi:namedview
     id="base"
     pagecolor="#ffffff"
     bordercolor="#666666"
     borderopacity="1.0"
     inkscape:pageopacity="0.0"
     inkscape:pageshadow="2"
     inkscape:zoom="0.35"
     inkscape:cx="-124.28571"
     inkscape:cy="445.71429"
     inkscape:document-units="mm"
     inkscape:current-layer="layer1"
     inkscape:document-rotation="0"
     showgrid="false"
     inkscape:window-width="1294"
     inkscape:window-height="1198"
     inkscape:window-x="52"
     inkscape:window-y="52"
     inkscape:window-maximized="0" />
  <metadata
     id="metadata999">
    <rdf:RDF>
      <cc:Work
         rdf:about="">
        <dc:format>image/svg+xml</dc:format>
        <dc:type
           rdf:resource="http://purl.org/dc/dcmitype/StillImage" />
      </cc:Work>
    </rdf:RDF>
  </metadata>
  <g
     inkscape:label="Ebene 1"
     inkscape:groupmode="layer"
     id="layer1">
    <path
       style="fill:#6e8587;fill-opacity:0.7153846;stroke:none;stroke-width:0.937007"
       d="m 123.53278,241.71278 c -0.48591,-1.17871 -1.17314,-4.13077 -1.52716,-6.56014 -0.89184,-6.12 -1.58042,-7.64282 -2.33978,-5.17456 -0.46598,1.51464 -6.91888,-8.06609 -29.321095,-43.53358 -15.79798,-25.01159 -30.15261,-48.74422 -31.89916,-52.73916 -1.74655,-3.99495 -3.9199,-11.07622 -4.82966,-15.73617 -3.0359,-15.55032 -0.54075,-37.799401 5.53775,-49.379831 7.60679,-14.49203 30.70724,-27.08746 57.252445,-31.21668 8.12046,-1.26317 9.91764,-1.26832 17.56258,-0.0503 32.47719,5.17439 53.17851,14.38457 56.87065,25.30219 1.85951,5.49856 2.24532,40.748021 0.62364,56.979321 l -1.39352,13.94771 -27.08286,46.7923 c -14.89558,25.73577 -28.87225,50.16168 -31.05926,54.27982 -4.46535,8.40821 -6.97653,10.52886 -8.39457,7.08907 z"
       id="path1008" />
    <path
       style="fill:#1ed6e8;fill-opacity:1;stroke:#000000;stroke-width:0.937006"
       d="m 108.47943,228.85838 c -0.48591,-1.17871 -1.17314,-4.13077 -1.52716,-6.56014 -0.89184,-6.12 -1.58042,-7.64282 -2.33978,-5.17456 -0.46598,1.51464 -6.918866,-8.06609 -29.321086,-43.53358 -15.79799,-25.01159 -30.15262,-48.74422 -31.89917,-52.73916 -1.74655,-3.99495 -3.9199,-11.07622 -4.82966,-15.73617 -3.03589,-15.550305 -0.54075,-37.799399 5.53776,-49.37983 7.60678,-14.492022 30.70724,-27.087456 57.252446,-31.216675 8.12045,-1.263169 9.91763,-1.268315 17.56257,-0.05029 32.47719,5.174391 53.17851,14.384568 56.87065,25.302185 1.85951,5.49857 2.24532,40.748035 0.62364,56.97932 l -1.39352,13.94771 -27.08286,46.7923 c -14.89558,25.73577 -28.87225,50.16168 -31.05926,54.27982 -4.46535,8.40821 -6.97653,10.52886 -8.39457,7.08907 z"
       id="path1008-7" />
  </g>
  <g
     inkscape:groupmode="layer"
     id="layer2"
     inkscape:label="Ebene 2">
    <text
       xml:space="preserve"
       style="font-style:normal;font-weight:normal;font-size:96.5332px;line-height:1.25;font-family:sans-serif;fill:#000000;fill-opacity:1;stroke:none;stroke-width:2.41333"
       x="61.567387"
       y="136.67581"
       id="text1573"
       transform="scale(1.0593483,0.94397661)"><tspan
         sodipodi:role="line"
         id="tspan1571"
         x="61.567387"
         y="136.67581"
         style="stroke-width:2.41333">JV</tspan></text>
  </g>
</svg>
